<svg viewBox="0 0 17.609 16.511" x="0" y="0" fill="none" xmlns="http://www.w3.org/2000/svg"><g id="Group 881234053" data-node-id="5:442" xmlns="http://www.w3.org/2000/svg"><path id="Vector 14_2" data-node-id="5:443" d="M7.087,1.361h-4.37c-1.501,0 -2.717,1.21 -2.717,2.72v9.71c0,1.5 1.216,2.72 2.717,2.72h10.268c1.501,0 2.718,-1.22 2.718,-2.72v-2.7" stroke="#F5F6F7" stroke-width="1.35884"/><path id="Vector 15" data-node-id="5:444" d="M6.419,9.591c-0.279,0.25 -0.301,0.68 -0.05,0.96c0.251,0.28 0.68,0.3 0.959,0.05zM17.108,1.531c0.02,-0.37 -0.268,-0.69 -0.643,-0.71l-6.106,-0.32c-0.375,-0.02 -0.695,0.27 -0.714,0.64c-0.02,0.38 0.268,0.7 0.642,0.72l5.428,0.28l-0.286,5.43c-0.019,0.37 0.269,0.69 0.643,0.71c0.375,0.02 0.695,-0.27 0.714,-0.64zM7.328,10.601l9.556,-8.6l-0.909,-1.01l-9.556,8.6z" fill="#F5F6F7"/></g></svg>