<svg viewBox="0 0 264.607 264.61" x="0" y="0" fill="none" xmlns="http://www.w3.org/2000/svg"><g id="Group 881234059" data-node-id="45:120" xmlns="http://www.w3.org/2000/svg"><path id="Subtract_9" data-node-id="45:121" fill-rule="evenodd" clip-rule="evenodd" d="M130.89,0c-25.916,0 -46.924,21.01 -46.924,46.93v170.76c0,25.91 21.008,46.92 46.924,46.92h2.824c25.915,0 46.923,-21.01 46.923,-46.92v-170.76c0,-25.92 -21.008,-46.93 -46.923,-46.93zM132.299,2.74c-20.404,0 -36.944,16.54 -36.944,36.95v186.83c0,20.41 16.54,36.95 36.944,36.95c20.403,0 36.943,-16.54 36.943,-36.95v-186.83c0,-20.41 -16.54,-36.95 -36.943,-36.95z" fill="white"/><path id="Subtract_10" data-node-id="45:124" fill-rule="evenodd" clip-rule="evenodd" d="M264.607,130.89c0,-25.91 -21.008,-46.92 -46.923,-46.92h-170.76c-25.916,0 -46.924,21.01 -46.924,46.92v2.83c0,25.91 21.008,46.92 46.924,46.92h170.76c25.915,0 46.923,-21.01 46.923,-46.92zM259.538,132.3c0,-20.4 -16.54,-36.94 -36.943,-36.94h-184.51c-20.403,0 -36.943,16.54 -36.943,36.94c0,20.41 16.54,36.95 36.943,36.95h184.51c20.403,0 36.943,-16.54 36.943,-36.95z" fill="white"/><path id="Subtract_11" data-node-id="45:127" fill-rule="evenodd" clip-rule="evenodd" d="M98.105,29.86c-20.067,0 -36.334,16.27 -36.334,36.33v132.23c0,20.06 16.267,36.33 36.334,36.33h2.187c20.066,0 36.334,-16.27 36.334,-36.33v-132.23c0,-20.06 -16.268,-36.33 -36.334,-36.33zM99.197,33.78c-15.799,0 -28.606,12.81 -28.606,28.61v142.87c0,15.8 12.807,28.6 28.606,28.6c15.799,0 28.606,-12.8 28.606,-28.6v-142.87c0,-15.8 -12.807,-28.61 -28.606,-28.61z" fill="white"/><path id="Subtract_12" data-node-id="45:130" fill-rule="evenodd" clip-rule="evenodd" d="M164.186,29.86c-20.067,0 -36.334,16.27 -36.334,36.33v132.23c0,20.06 16.267,36.33 36.334,36.33h2.187c20.066,0 36.334,-16.27 36.334,-36.33v-132.23c0,-20.06 -16.268,-36.33 -36.334,-36.33zM165.283,33.78c-15.799,0 -28.606,12.81 -28.606,28.61v142.87c0,15.8 12.807,28.6 28.606,28.6c15.798,0 28.606,-12.8 28.606,-28.6v-142.87c0,-15.8 -12.808,-28.61 -28.606,-28.61z" fill="white"/></g></svg>