<svg viewBox="0 0 60.792 60.7918" x="0" y="0" fill="none" xmlns="http://www.w3.org/2000/svg"><g id="Group 881234058" data-node-id="45:107" xmlns="http://www.w3.org/2000/svg"><path id="Subtract" data-node-id="45:108" fill-rule="evenodd" clip-rule="evenodd" d="M30.191,0c-5.93,0 -10.738,4.8077 -10.738,10.7382v39.0772c0,5.9306 4.808,10.7382 10.738,10.7382h0.646c5.931,0 10.739,-4.8076 10.739,-10.7382v-39.0772c0,-5.9305 -4.808,-10.7382 -10.739,-10.7382zM30.514,0.6275c-4.67,0 -8.455,3.785 -8.455,8.4542v42.7559c0,4.6691 3.785,8.4542 8.455,8.4542c4.669,0 8.454,-3.7851 8.454,-8.4542v-42.7559c0,-4.6692 -3.785,-8.4542 -8.454,-8.4542z" fill="#5B5B5B"/><path id="Subtract_2" data-node-id="45:111" fill-rule="evenodd" clip-rule="evenodd" d="M60.792,29.9535c0,-5.9305 -4.808,-10.7381 -10.738,-10.7381h-39.078c-5.93,0 -10.738,4.8076 -10.738,10.7381v0.6463c0,5.9305 4.808,10.7382 10.738,10.7382h39.078c5.93,0 10.738,-4.8077 10.738,-10.7382zM59.632,30.2763c0,-4.6692 -3.785,-8.4542 -8.454,-8.4542h-42.224c-4.669,0 -8.454,3.785 -8.454,8.4542c0,4.6691 3.785,8.4541 8.454,8.4541l42.224,0.0001c4.669,0 8.454,-3.7851 8.454,-8.4542z" fill="#5B5B5B"/><path id="Subtract_3" data-node-id="45:114" fill-rule="evenodd" clip-rule="evenodd" d="M22.689,6.8328c-4.593,0 -8.315,3.7227 -8.315,8.3149v30.2585c0,4.5921 3.722,8.3148 8.315,8.3148h0.5c4.592,0 8.315,-3.7227 8.315,-8.3148v-30.2586c0,-4.5921 -3.723,-8.3148 -8.315,-8.3148zM22.939,7.7302c-3.616,0 -6.547,2.9309 -6.547,6.5463v32.6951c0,3.6154 2.931,6.5463 6.547,6.5463c3.615,0 6.546,-2.9309 6.546,-6.5463v-32.6951c0,-3.6154 -2.931,-6.5463 -6.546,-6.5463z" fill="#5B5B5B"/><path id="Subtract_4" data-node-id="45:117" fill-rule="evenodd" clip-rule="evenodd" d="M37.811,6.8321c-4.592,0 -8.315,3.7227 -8.315,8.3148v30.2585c0,4.5922 3.723,8.3149 8.315,8.3149h0.5c4.592,0 8.315,-3.7227 8.315,-8.3149v-30.2585c0,-4.5922 -3.723,-8.3148 -8.315,-8.3148zM38.061,7.7301c-3.615,0 -6.546,2.9308 -6.546,6.5463v32.695c0,3.6154 2.931,6.5463 6.546,6.5463c3.616,0 6.547,-2.9309 6.547,-6.5463v-32.695c0,-3.6155 -2.931,-6.5463 -6.547,-6.5463z" fill="#5B5B5B"/></g></svg>