<svg viewBox="0 0 75.624 75.624" fill="none" xmlns="http://www.w3.org/2000/svg" xmlns:xlink="http://www.w3.org/1999/xlink" id="62ffb535" x="0" y="0"><g id="главная" data-node-id="45:3" clip-path="url(#clip0_45_3)"><circle id="Ellipse 2033" data-node-id="45:135" cx="37.81200000000001" cy="37.8119999999999" r="37.312" fill="white"/><g id="Group 881234060" data-node-id="45:136"><path id="Subtract_5" data-node-id="45:137" fill-rule="evenodd" clip-rule="evenodd" d="M37.482,7.112c-6.01,0 -10.89,4.88 -10.89,10.89v39.63c0,6.01 4.88,10.89 10.89,10.89h0.66c6.01,0 10.89,-4.88 10.89,-10.89v-39.63c0,-6.01 -4.88,-10.89 -10.89,-10.89zM37.812,7.752c-4.74,0 -8.57,3.84 -8.57,8.57v43.36c0,4.73 3.83,8.57 8.57,8.57c4.73,0 8.57,-3.84 8.57,-8.57v-43.36c0,-4.73 -3.84,-8.57 -8.57,-8.57z" fill="#283038"/><path id="Subtract_6" data-node-id="45:140" fill-rule="evenodd" clip-rule="evenodd" d="M68.512,37.492c0,-6.02 -4.87,-10.89 -10.89,-10.89h-39.62c-6.016,0 -10.891,4.87 -10.891,10.89v0.65c0,6.01 4.875,10.89 10.891,10.89h39.62c6.02,0 10.89,-4.88 10.89,-10.89zM67.342,37.812c0,-4.73 -3.84,-8.57 -8.58,-8.57h-42.81c-4.738,0 -8.577,3.84 -8.577,8.57c0,4.74 3.839,8.58 8.577,8.58h42.81c4.74,0 8.58,-3.84 8.58,-8.58z" fill="#283038"/><path id="Subtract_7" data-node-id="45:143" fill-rule="evenodd" clip-rule="evenodd" d="M29.872,14.042c-4.65,0 -8.43,3.78 -8.43,8.43v30.69c0,4.65 3.78,8.43 8.43,8.43h0.51c4.66,0 8.43,-3.78 8.43,-8.43v-30.69c0,-4.65 -3.77,-8.43 -8.43,-8.43zM30.132,14.952c-3.67,0 -6.64,2.97 -6.64,6.64v33.15c0,3.67 2.97,6.64 6.64,6.64c3.66,0 6.64,-2.97 6.64,-6.64v-33.15c0,-3.67 -2.98,-6.64 -6.64,-6.64z" fill="#283038"/><path id="Subtract_8" data-node-id="45:146" fill-rule="evenodd" clip-rule="evenodd" d="M45.212,14.042c-4.66,0 -8.43,3.77 -8.43,8.43v30.68c0,4.66 3.77,8.44 8.43,8.44h0.51c4.65,0 8.43,-3.78 8.43,-8.44v-30.68c0,-4.66 -3.78,-8.43 -8.43,-8.43zM45.462,14.952c-3.66,0 -6.63,2.97 -6.63,6.64v33.15c0,3.67 2.97,6.64 6.63,6.64c3.67,0 6.64,-2.97 6.64,-6.64v-33.15c0,-3.67 -2.97,-6.64 -6.64,-6.64z" fill="#283038"/></g></g><defs><clipPath id="clip0_45_3"><rect width="1440" height="4490" fill="white" x="-986.188" y="-3824.398"/></clipPath></defs></svg>