<svg width="61" height="61" viewBox="0 0 61 61" fill="none" xmlns="http://www.w3.org/2000/svg">
<path fill-rule="evenodd" clip-rule="evenodd" d="M29.953 0.444824C24.0225 0.444824 19.2148 5.25247 19.2148 11.183V50.2602C19.2148 56.1908 24.0225 60.9984 29.953 60.9984H30.5993C36.5298 60.9984 41.3375 56.1908 41.3375 50.2602V11.183C41.3375 5.25247 36.5298 0.444824 30.5993 0.444824H29.953ZM30.2755 1.07227C25.6064 1.07227 21.8213 4.85733 21.8213 9.52645V52.2824C21.8213 56.9515 25.6064 60.7366 30.2755 60.7366C34.9446 60.7366 38.7297 56.9515 38.7297 52.2824V9.52645C38.7297 4.85734 34.9446 1.07227 30.2755 1.07227Z" fill="#5B5B5B"/>
<path fill-rule="evenodd" clip-rule="evenodd" d="M60.5537 30.3983C60.5537 24.4678 55.7461 19.6602 49.8155 19.6602L10.7383 19.6602C4.80777 19.6602 0.000118045 24.4678 0.000117786 30.3983L0.000117758 31.0446C0.000117499 36.9751 4.80776 41.7828 10.7383 41.7828L49.8155 41.7828C55.7461 41.7828 60.5537 36.9751 60.5537 31.0446L60.5537 30.3983ZM59.3937 30.7211C59.3937 26.0519 55.6087 22.2669 50.9395 22.2669L8.71574 22.2669C4.04662 22.2669 0.261551 26.0519 0.26155 30.7211C0.26155 35.3902 4.04661 39.1752 8.71574 39.1752L50.9395 39.1753C55.6087 39.1753 59.3937 35.3902 59.3937 30.7211Z" fill="#5B5B5B"/>
<path fill-rule="evenodd" clip-rule="evenodd" d="M22.4506 7.27759C17.8584 7.27759 14.1357 11.0003 14.1357 15.5925L14.1357 45.851C14.1357 50.4431 17.8584 54.1658 22.4506 54.1658H22.951C27.5432 54.1658 31.2659 50.4431 31.2659 45.851L31.2659 15.5924C31.2659 11.0003 27.5432 7.27759 22.951 7.27759H22.4506ZM22.7006 8.17505C19.0852 8.17505 16.1543 11.1059 16.1543 14.7213L16.1543 47.4164C16.1543 51.0318 19.0852 53.9627 22.7006 53.9627C26.316 53.9627 29.2469 51.0318 29.2469 47.4164L29.2469 14.7213C29.2469 11.1059 26.316 8.17505 22.7006 8.17505Z" fill="#5B5B5B"/>
<path fill-rule="evenodd" clip-rule="evenodd" d="M37.5727 7.27686C32.9805 7.27686 29.2578 10.9996 29.2578 15.5917L29.2578 45.8502C29.2578 50.4424 32.9805 54.1651 37.5727 54.1651H38.0731C42.6652 54.1651 46.3879 50.4424 46.3879 45.8502L46.3879 15.5917C46.3879 10.9995 42.6652 7.27686 38.0731 7.27686H37.5727ZM37.8234 8.17487C34.208 8.17487 31.2771 11.1057 31.2771 14.7212L31.2771 47.4162C31.2771 51.0316 34.208 53.9625 37.8234 53.9625C41.4388 53.9625 44.3697 51.0316 44.3697 47.4162L44.3697 14.7212C44.3697 11.1057 41.4388 8.17487 37.8234 8.17487Z" fill="#5B5B5B"/>
</svg>
